<svg width="22" height="22" viewBox="0 0 22 22" fill="none" xmlns="http://www.w3.org/2000/svg">
<path fill-rule="evenodd" clip-rule="evenodd" d="M21.4442 11.4286C21.4442 10.6622 21.3756 9.92528 21.2483 9.21783H11.1027V13.3986H16.9002C16.6504 14.7497 15.8915 15.8943 14.7506 16.6607V19.3726H18.232C20.269 17.491 21.4442 14.7202 21.4442 11.4286Z" fill="#4285F4"/>
<path fill-rule="evenodd" clip-rule="evenodd" d="M11.1027 21.9909C14.0112 21.9909 16.4497 21.0231 18.232 19.3724L14.7506 16.6605C13.786 17.309 12.552 17.6922 11.1027 17.6922C8.29695 17.6922 5.92213 15.7909 5.07503 13.2363H1.47607V16.0366C3.24862 19.5689 6.89165 21.9909 11.1027 21.9909Z" fill="#34A853"/>
<path fill-rule="evenodd" clip-rule="evenodd" d="M5.07482 13.2363C4.85938 12.5878 4.73696 11.8951 4.73696 11.1828C4.73696 10.4704 4.85938 9.77771 5.07482 9.12922V6.32892H1.47587C0.746284 7.78802 0.330078 9.43873 0.330078 11.1828C0.330078 12.9268 0.746284 14.5775 1.47587 16.0366L5.07482 13.2363Z" fill="#FBBC05"/>
<path fill-rule="evenodd" clip-rule="evenodd" d="M11.1027 4.67322C12.6843 4.67322 14.1042 5.21854 15.2207 6.28953L18.3104 3.18955C16.4448 1.4455 14.0063 0.374512 11.1027 0.374512C6.89165 0.374512 3.24862 2.79653 1.47607 6.32884L5.07503 9.12914C5.92213 6.57448 8.29695 4.67322 11.1027 4.67322Z" fill="#EA4335"/>
</svg>
